<?xml version="1.0" encoding="UTF-8"?>
<!DOCTYPE svg PUBLIC "-//W3C//DTD SVG 1.1//EN" "http://www.w3.org/Graphics/SVG/1.1/DTD/svg11.dtd">
<svg xmlns="http://www.w3.org/2000/svg" version="1.1" width="2000px" height="625px" style="shape-rendering:geometricPrecision; text-rendering:geometricPrecision; image-rendering:optimizeQuality; fill-rule:evenodd; clip-rule:evenodd" xmlns:xlink="http://www.w3.org/1999/xlink">
<g><path style="opacity:0.942" fill="white" d="M 225.5,61.5 C 228.85,61.335 232.183,61.5017 235.5,62C 283.792,142.084 331.959,222.25 380,302.5C 381.555,307.382 381.888,312.382 381,317.5C 333.082,397.001 285.415,476.668 238,556.5C 234.692,560.327 230.526,561.494 225.5,560C 176.956,480.416 128.79,400.582 81,320.5C 78.5758,315.43 77.9091,310.097 79,304.5C 127.342,223.14 176.175,142.14 225.5,61.5 Z M 225.5,91.5 C 226.117,91.6107 226.617,91.944 227,92.5C 234.338,121.185 241.338,149.851 248,178.5C 231.178,165.007 215.012,150.841 199.5,136C 208.378,121.289 217.044,106.456 225.5,91.5 Z M 324.5,243.5 C 306.206,228.377 288.039,213.044 270,197.5C 263.019,171.577 256.685,145.577 251,119.5C 275.775,160.724 300.275,202.057 324.5,243.5 Z M 189.5,151.5 C 190.922,151.709 192.255,152.209 193.5,153C 210.98,168.569 228.646,183.903 246.5,199C 211.745,210.196 177.078,221.696 142.5,233.5C 141.479,232.998 141.312,232.332 142,231.5C 158.108,204.943 173.941,178.276 189.5,151.5 Z M 254.5,212.5 C 255.376,212.369 256.043,212.702 256.5,213.5C 264.833,230.833 273.167,248.167 281.5,265.5C 239.585,259.794 197.585,253.294 155.5,246C 188.709,235.098 221.709,223.931 254.5,212.5 Z M 282.5,229.5 C 299.667,244.498 317,259.331 334.5,274C 323.031,273.144 311.697,271.311 300.5,268.5C 294.215,255.598 288.215,242.598 282.5,229.5 Z M 126.5,257.5 C 148.115,261.158 169.782,264.491 191.5,267.5C 192.055,279.159 192.388,290.826 192.5,302.5C 161.473,302.639 130.473,302.639 99.5,302.5C 108.763,287.638 117.763,272.638 126.5,257.5 Z M 206.5,270.5 C 229.944,273.796 253.278,277.63 276.5,282C 254.167,293.833 231.833,305.667 209.5,317.5C 208.18,301.838 207.18,286.171 206.5,270.5 Z M 312.5,287.5 C 326.89,289.231 341.223,291.398 355.5,294C 358.708,299.583 362.041,305.083 365.5,310.5C 356.252,326.665 346.752,342.665 337,358.5C 328.142,335.093 319.975,311.427 312.5,287.5 Z M 269.5,303.5 C 270.239,303.369 270.906,303.536 271.5,304C 238.789,349.921 205.956,395.755 173,441.5C 159.833,419.667 146.667,397.833 133.5,376C 178.998,351.969 224.331,327.802 269.5,303.5 Z M 285.5,310.5 C 286.158,311.793 286.492,313.293 286.5,315C 283.101,349.595 279.267,384.095 275,418.5C 269.342,396.202 263.842,373.869 258.5,351.5C 258.667,350.5 258.833,349.5 259,348.5C 268.468,336.212 277.302,323.545 285.5,310.5 Z M 302.5,310.5 C 310.532,332.257 318.198,354.257 325.5,376.5C 313.683,396.796 301.849,417.129 290,437.5C 293.76,395.156 297.927,352.823 302.5,310.5 Z M 128.5,317.5 C 150.167,317.5 171.833,317.5 193.5,317.5C 194.006,321.007 193.34,324.174 191.5,327C 169.342,338.245 147.342,349.745 125.5,361.5C 116.708,347.417 108.041,333.25 99.5,319C 109.342,318.83 119.009,318.33 128.5,317.5 Z M 245.5,367.5 C 252.464,393.688 258.964,420.021 265,446.5C 248.757,435.294 232.257,424.46 215.5,414C 214.978,413.439 214.645,412.772 214.5,412C 224.714,397.067 235.048,382.234 245.5,367.5 Z M 203.5,426.5 C 213.066,431.624 222.4,437.291 231.5,443.5C 231.833,445 232.167,446.5 232.5,448C 230.157,474.267 227.324,500.433 224,526.5C 210.034,503.4 196.201,480.233 182.5,457C 189.381,446.734 196.381,436.568 203.5,426.5 Z M 247.5,454.5 C 255.401,459.054 263.068,464.054 270.5,469.5C 260.801,485.369 251.301,501.369 242,517.5C 243.26,496.47 245.094,475.47 247.5,454.5 Z"/></g>
<g><path style="opacity:0.962" fill="white" d="M 1748.5,194.5 C 1759.5,194.5 1770.5,194.5 1781.5,194.5C 1781.2,198.215 1781.86,201.715 1783.5,205C 1828.5,205.5 1873.5,205.667 1918.5,205.5C 1878.49,267.659 1837.83,329.493 1796.5,391C 1837.83,391.5 1879.17,391.667 1920.5,391.5C 1920.5,403.167 1920.5,414.833 1920.5,426.5C 1858.5,426.833 1796.5,426.5 1734.5,425.5C 1774.46,363.743 1814.79,302.243 1855.5,241C 1826.83,240.667 1798.17,240.333 1769.5,240C 1760.08,238.717 1753.25,233.883 1749,225.5C 1748.5,215.172 1748.33,204.839 1748.5,194.5 Z"/></g>
<g><path style="opacity:0.964" fill="white" d="M 898.5,196.5 C 901.05,196.561 902.55,197.894 903,200.5C 934.833,275.5 966.667,350.5 998.5,425.5C 984.516,426.499 970.516,426.833 956.5,426.5C 950.525,409.077 943.858,391.91 936.5,375C 910.16,374.167 883.827,374.333 857.5,375.5C 850.788,392.472 843.788,409.305 836.5,426C 824.838,426.5 813.171,426.667 801.5,426.5C 833.278,349.609 865.611,272.942 898.5,196.5 Z M 897.5,276.5 C 906.865,298.239 915.865,320.239 924.5,342.5C 906.509,343.666 888.509,343.833 870.5,343C 879.925,320.987 888.925,298.82 897.5,276.5 Z"/></g>
<g><path style="opacity:0.964" fill="white" d="M 1437.5,196.5 C 1440.05,196.561 1441.55,197.894 1442,200.5C 1473.83,275.5 1505.67,350.5 1537.5,425.5C 1523.52,426.499 1509.52,426.833 1495.5,426.5C 1489.53,409.077 1482.86,391.91 1475.5,375C 1449.16,374.167 1422.83,374.333 1396.5,375.5C 1389.79,392.472 1382.79,409.305 1375.5,426C 1363.84,426.5 1352.17,426.667 1340.5,426.5C 1372.28,349.609 1404.61,272.942 1437.5,196.5 Z M 1436.5,276.5 C 1445.86,298.239 1454.86,320.239 1463.5,342.5C 1445.51,343.666 1427.51,343.833 1409.5,343C 1418.92,320.987 1427.92,298.82 1436.5,276.5 Z"/></g>
<g><path style="opacity:0.964" fill="white" d="M 1098.5,203.5 C 1126.95,201.03 1153.28,207.197 1177.5,222C 1172.79,233.309 1167.79,244.476 1162.5,255.5C 1135.1,235.423 1106.44,233.257 1076.5,249C 1049.29,268.914 1037.79,295.747 1042,329.5C 1051.48,375.299 1079.65,396.465 1126.5,393C 1140.61,390.941 1153.28,385.608 1164.5,377C 1165.33,376.312 1166,376.479 1166.5,377.5C 1170.06,385.622 1173.89,393.622 1178,401.5C 1179.31,404.089 1179.98,406.756 1180,409.5C 1142.18,431.937 1103.02,434.437 1062.5,417C 1023.62,395.277 1003.96,361.943 1003.5,317C 1003.12,272.812 1021.46,239.145 1058.5,216C 1071.28,209.647 1084.61,205.48 1098.5,203.5 Z"/></g>
<g><path style="opacity:0.976" fill="white" d="M 455.5,205.5 C 500.167,205.5 544.833,205.5 589.5,205.5C 589.5,216.833 589.5,228.167 589.5,239.5C 556.833,239.5 524.167,239.5 491.5,239.5C 491.5,259.833 491.5,280.167 491.5,300.5C 519.833,300.5 548.167,300.5 576.5,300.5C 576.5,312.167 576.5,323.833 576.5,335.5C 548.167,335.5 519.833,335.5 491.5,335.5C 491.5,365.5 491.5,395.5 491.5,425.5C 479.5,425.5 467.5,425.5 455.5,425.5C 455.5,352.167 455.5,278.833 455.5,205.5 Z"/></g>
<g><path style="opacity:0.974" fill="white" d="M 620.5,205.5 C 645.836,205.333 671.169,205.5 696.5,206C 720.631,207.809 739.798,218.309 754,237.5C 762.823,253.771 765.823,271.104 763,289.5C 759.794,312.004 748.628,329.171 729.5,341C 746.62,368.956 763.953,396.789 781.5,424.5C 767.5,425.833 753.5,425.833 739.5,424.5C 723.5,399.833 707.5,375.167 691.5,350.5C 679.852,349.501 668.186,349.168 656.5,349.5C 656.5,374.833 656.5,400.167 656.5,425.5C 644.5,425.5 632.5,425.5 620.5,425.5C 620.5,352.167 620.5,278.833 620.5,205.5 Z M 656.5,239.5 C 670.532,239.209 684.532,239.709 698.5,241C 716.838,246.145 726.171,258.312 726.5,277.5C 726.053,290.562 720.72,301.062 710.5,309C 705.768,311.466 700.768,313.133 695.5,314C 682.504,314.5 669.504,314.667 656.5,314.5C 656.5,289.5 656.5,264.5 656.5,239.5 Z"/></g>
<g><path style="opacity:0.976" fill="white" d="M 1203.5,205.5 C 1252.83,205.5 1302.17,205.5 1351.5,205.5C 1351.5,216.833 1351.5,228.167 1351.5,239.5C 1332.5,239.5 1313.5,239.5 1294.5,239.5C 1294.5,301.5 1294.5,363.5 1294.5,425.5C 1282.5,425.5 1270.5,425.5 1258.5,425.5C 1258.5,363.5 1258.5,301.5 1258.5,239.5C 1240.17,239.5 1221.83,239.5 1203.5,239.5C 1203.5,228.167 1203.5,216.833 1203.5,205.5 Z"/></g>
<g><path style="opacity:0.973" fill="white" d="M 1565.5,205.5 C 1577.5,205.5 1589.5,205.5 1601.5,205.5C 1601.5,267.167 1601.5,328.833 1601.5,390.5C 1637.5,390.5 1673.5,390.5 1709.5,390.5C 1709.5,402.167 1709.5,413.833 1709.5,425.5C 1661.5,425.5 1613.5,425.5 1565.5,425.5C 1565.5,352.167 1565.5,278.833 1565.5,205.5 Z"/></g>
</svg>
