<?xml version="1.0" encoding="UTF-8"?>
<svg version="1.1" xmlns="http://www.w3.org/2000/svg" width="1000" height="375">
<path d="M0 0 C3.96672191 1.42829065 6.3249357 4.43224705 9.109375 7.49609375 C15.68991376 14.52476956 23.29465753 16.52862309 32.6953125 16.9921875 C36.43089635 16.81758956 39.19669913 16.02162823 42.7265625 14.82421875 C56.73048195 10.63322494 76.9325085 10.14594175 90.2890625 16.82421875 C102.19585842 17.46208282 110.23127226 14.80334881 119.2890625 6.82421875 C120.20036777 5.68568513 121.08351943 4.5229407 121.9140625 3.32421875 C124.49840236 0.603861 125.03577907 0.34059306 128.6015625 0.07421875 C134.14985798 0.48895845 137.42181751 3.01947951 141.2890625 6.82421875 C146.7722523 13.20262321 148.2294832 18.38449857 147.9140625 26.69921875 C147.8929541 27.66939941 147.8718457 28.63958008 147.85009766 29.63916016 C147.47243117 39.80197721 145.3647589 47.38894648 138.265625 54.875 C136.99283244 56.89752522 136.99283244 56.89752522 137.9375 59.6171875 C138.38351563 60.67550781 138.82953125 61.73382813 139.2890625 62.82421875 C139.7634375 63.95859375 140.2378125 65.09296875 140.7265625 66.26171875 C141.2421875 67.43734375 141.7578125 68.61296875 142.2890625 69.82421875 C146.38906126 79.17221593 147.49781211 85.5954877 147.2890625 95.82421875 C141.6790625 95.49421875 136.0690625 95.16421875 130.2890625 94.82421875 C130.097599 102.17851146 130.097599 102.17851146 132.69140625 108.78125 C134.21454743 110.13953355 135.75117348 111.48265599 137.2890625 112.82421875 C137.6640625 115.69921875 137.6640625 115.69921875 137.2890625 117.82421875 C132.58444927 119.68554548 128.4132929 120.07516835 123.4140625 119.94921875 C122.72570312 119.94019531 122.03734375 119.93117188 121.328125 119.921875 C119.64828412 119.89854388 117.96862504 119.86268201 116.2890625 119.82421875 C117.20171875 120.40042969 118.114375 120.97664063 119.0546875 121.5703125 C121.87663974 123.53681787 123.84830993 125.27891925 126.0390625 127.88671875 C126.61140625 128.55832031 127.18375 129.22992188 127.7734375 129.921875 C130.88567359 133.82821257 131.50923145 135.87041749 131.2890625 140.82421875 C125.83427065 140.25601127 121.37846994 138.8778393 116.2890625 136.82421875 C116.77117187 137.63246094 117.25328125 138.44070312 117.75 139.2734375 C118.38164062 140.34207031 119.01328125 141.41070312 119.6640625 142.51171875 C120.29054687 143.56746094 120.91703125 144.62320313 121.5625 145.7109375 C124.53637402 151.07333025 125.53140878 154.64438849 125.2890625 160.82421875 C119.21175826 160.45355725 116.0838066 158.69494891 111.4765625 154.82421875 C107.58953893 151.51518018 107.58953893 151.51518018 103.2890625 148.82421875 C103.26328125 149.71882812 103.2375 150.6134375 103.2109375 151.53515625 C102.59688922 164.62554906 99.41325476 173.28105848 90.2890625 182.82421875 C79.96713091 191.98417851 79.96713091 191.98417851 72.2890625 191.82421875 C69.96548739 191.63931868 69.96548739 191.63931868 67.2890625 193.82421875 C62.26367038 194.28953284 59.38327411 193.80182719 55.2890625 190.82421875 C54.9590625 191.15421875 54.6290625 191.48421875 54.2890625 191.82421875 C46.16270452 191.82421875 41.46581734 186.87349547 35.85546875 181.48828125 C26.24946708 171.48794454 24.64869028 162.31026064 24.2890625 148.82421875 C19.74280485 151.79191471 15.31782965 154.77401139 11.1015625 158.19921875 C8.30675032 160.34993594 7.44455297 160.80755906 3.7890625 161.19921875 C2.5515625 161.01359375 2.5515625 161.01359375 1.2890625 160.82421875 C1.58441881 153.14495473 4.68951998 147.50771946 8.2890625 140.82421875 C8.96101139 139.49353963 9.63004753 138.16135057 10.2890625 136.82421875 C9.41894531 137.25734375 9.41894531 137.25734375 8.53125 137.69921875 C3.94457065 139.87902676 0.48683401 141.35732352 -4.7109375 140.82421875 C-5.31695413 134.95542611 -2.36009343 131.92464129 1.04296875 127.4296875 C3.86081249 124.16098877 6.60920757 122.04746443 10.2890625 119.82421875 C8.89494141 119.85902344 8.89494141 119.85902344 7.47265625 119.89453125 C-4.80584084 120.07377938 -4.80584084 120.07377938 -10.7109375 117.82421875 C-10.43009178 113.79876341 -9.92728046 112.07939249 -7.2734375 108.94921875 C-4.7109375 106.82421875 -4.7109375 106.82421875 -2.7109375 106.82421875 C-3.2059375 100.88421875 -3.2059375 100.88421875 -3.7109375 94.82421875 C-12.1259375 95.31921875 -12.1259375 95.31921875 -20.7109375 95.82421875 C-21.38977658 88.80954821 -20.1795809 83.29009404 -17.9609375 76.69921875 C-17.70876465 75.94785645 -17.4565918 75.19649414 -17.19677734 74.42236328 C-15.61714531 69.91996855 -13.75041397 65.79364379 -11.37402344 61.65283203 C-10.5250732 59.31165483 -10.87449188 58.1376154 -11.7109375 55.82421875 C-12.62866363 54.25803943 -13.59160934 52.71791898 -14.5859375 51.19921875 C-20.98631656 40.56781988 -22.44940893 29.09628557 -20.7109375 16.82421875 C-19.35106333 13.02354478 -17.56915383 10.63368085 -14.7109375 7.82421875 C-14.09605469 7.13714844 -13.48117188 6.45007813 -12.84765625 5.7421875 C-8.99807125 1.83088571 -5.61758893 -0.43434966 0 0 Z M129.2890625 13.82421875 C128.74378906 14.4275 128.19851562 15.03078125 127.63671875 15.65234375 C122.57714509 21.01462695 118.23736314 24.39164154 111.2890625 26.82421875 C110.2784375 27.23671875 109.2678125 27.64921875 108.2265625 28.07421875 C107.5871875 28.32171875 106.9478125 28.56921875 106.2890625 28.82421875 C107.2790625 31.29921875 107.2790625 31.29921875 108.2890625 33.82421875 C108.9490625 33.82421875 109.6090625 33.82421875 110.2890625 33.82421875 C110.7840625 37.28921875 110.7840625 37.28921875 111.2890625 40.82421875 C104.71874269 39.03038345 99.30088459 35.41543496 93.54101562 31.90039062 C85.72969723 27.24376397 78.96776842 24.36755741 69.7265625 24.63671875 C68.50839844 24.66378906 67.29023437 24.69085938 66.03515625 24.71875 C65.12894531 24.75355469 64.22273438 24.78835937 63.2890625 24.82421875 C64.2790625 28.12421875 65.2690625 31.42421875 66.2890625 34.82421875 C64.3090625 34.82421875 62.3290625 34.82421875 60.2890625 34.82421875 C60.2890625 31.52421875 60.2890625 28.22421875 60.2890625 24.82421875 C46.03076431 23.99765074 35.11746346 30.59032064 23.2890625 37.82421875 C22.6290625 38.48421875 21.9690625 39.14421875 21.2890625 39.82421875 C18.6640625 40.44921875 18.6640625 40.44921875 16.2890625 40.82421875 C17.43845039 36.31508164 18.81428091 32.74996818 21.2890625 28.82421875 C20.38542969 28.49808594 19.48179688 28.17195313 18.55078125 27.8359375 C17.37128906 27.39894531 16.19179688 26.96195313 14.9765625 26.51171875 C13.80480469 26.08246094 12.63304687 25.65320313 11.42578125 25.2109375 C8.59416788 23.95910344 7.30441322 23.04827893 5.2890625 20.82421875 C4.6290625 20.82421875 3.9690625 20.82421875 3.2890625 20.82421875 C3.2890625 20.16421875 3.2890625 19.50421875 3.2890625 18.82421875 C1.66279846 17.44189432 -0.0034377 16.1048436 -1.7109375 14.82421875 C-4.25656807 15.78980276 -5.65728954 16.7629068 -7.4609375 18.82421875 C-10.65431417 26.48832276 -8.41691156 33.851244 -5.9765625 41.453125 C-4.95681287 43.88766936 -4.95681287 43.88766936 -3.0546875 44.72265625 C0.36841889 44.87099086 3.66572217 44.40005315 7.0390625 43.88671875 C8.08513672 43.73686523 8.08513672 43.73686523 9.15234375 43.58398438 C10.86557976 43.33756002 12.57746975 43.0818092 14.2890625 42.82421875 C13.02227707 47.40719642 11.42323218 50.14688007 8.2265625 53.63671875 C4.22900863 58.34581133 1.21854827 63.16970395 -1.6484375 68.63671875 C-2.02556885 69.35384033 -2.4027002 70.07096191 -2.79125977 70.80981445 C-4.84453529 74.82518155 -6.25828557 78.46626296 -7.7109375 82.82421875 C-2.7609375 82.82421875 2.1890625 82.82421875 7.2890625 82.82421875 C7.2271875 85.17546875 7.2271875 85.17546875 7.1640625 87.57421875 C7.147852 93.8071557 8.09610446 99.72096021 9.2890625 105.82421875 C10.00578125 105.53675781 10.7225 105.24929687 11.4609375 104.953125 C12.39421875 104.58058594 13.3275 104.20804687 14.2890625 103.82421875 C15.13984375 103.48261719 15.990625 103.14101562 16.8671875 102.7890625 C22.76656746 100.52073366 27.97990762 99.23793382 34.2890625 98.82421875 C32.3090625 102.78421875 30.3290625 106.74421875 28.2890625 110.82421875 C30.08103645 112.96326432 30.08103645 112.96326432 32.3515625 113.32421875 C32.9909375 113.48921875 33.6303125 113.65421875 34.2890625 113.82421875 C34.6190625 114.48421875 34.9490625 115.14421875 35.2890625 115.82421875 C32.6490625 115.82421875 30.0090625 115.82421875 27.2890625 115.82421875 C26.9590625 118.13421875 26.6290625 120.44421875 26.2890625 122.82421875 C31.2390625 122.32921875 31.2390625 122.32921875 36.2890625 121.82421875 C36.2890625 122.81421875 36.2890625 123.80421875 36.2890625 124.82421875 C31.8340625 125.81421875 31.8340625 125.81421875 27.2890625 126.82421875 C27.9490625 128.80421875 28.6090625 130.78421875 29.2890625 132.82421875 C31.7640625 132.32921875 31.7640625 132.32921875 34.2890625 131.82421875 C33.2890625 134.82421875 33.2890625 134.82421875 31.2890625 136.82421875 C36.96810154 142.2149817 41.29477358 145.74517387 49.3515625 146.13671875 C53.34808914 145.8195341 55.21723129 145.33753519 58.2890625 142.82421875 C58.6190625 141.83421875 58.9490625 140.84421875 59.2890625 139.82421875 C58.62519531 139.52128906 57.96132812 139.21835938 57.27734375 138.90625 C50.79766976 135.83195212 46.33421869 132.89195304 42.2890625 126.82421875 C41.97021484 124.9230957 41.97021484 124.9230957 41.875 122.8125 C41.81699219 121.67651367 41.81699219 121.67651367 41.7578125 120.51757812 C41.726875 119.73189453 41.6959375 118.94621094 41.6640625 118.13671875 C41.60605469 116.94079102 41.60605469 116.94079102 41.546875 115.72070312 C41.45273756 113.755584 41.36981618 111.78993335 41.2890625 109.82421875 C43.7640625 109.32921875 43.7640625 109.32921875 46.2890625 108.82421875 C46.484375 110.80989583 46.6796875 112.79557292 46.875 114.78125 C47.21571641 117.12410017 47.21571641 117.12410017 49.2890625 119.82421875 C57.75736813 122.81774078 68.87515498 123.21072925 77.2890625 119.82421875 C79.94878285 116.7489171 80.71970207 113.80974174 81.2890625 109.82421875 C82.2790625 109.82421875 83.2690625 109.82421875 84.2890625 109.82421875 C86.39165529 116.13199711 86.01804885 123.79770722 83.2890625 129.82421875 C78.99644749 134.65969374 74.34432641 137.67964611 68.2890625 139.82421875 C69.20419569 142.11205172 69.94390896 143.55871603 71.9140625 145.07421875 C77.14589236 146.72637555 81.57713975 146.42435092 86.4765625 144.13671875 C90.04443756 142.17333188 92.59268415 139.85764439 95.2890625 136.82421875 C94.9590625 136.16421875 94.6290625 135.50421875 94.2890625 134.82421875 C93.6290625 134.82421875 92.9690625 134.82421875 92.2890625 134.82421875 C93.2790625 133.33921875 93.2790625 133.33921875 94.2890625 131.82421875 C96.2690625 132.31921875 96.2690625 132.31921875 98.2890625 132.82421875 C98.6190625 130.84421875 98.9490625 128.86421875 99.2890625 126.82421875 C96.6490625 126.16421875 94.0090625 125.50421875 91.2890625 124.82421875 C91.2890625 123.83421875 91.2890625 122.84421875 91.2890625 121.82421875 C94.2590625 122.15421875 97.2290625 122.48421875 100.2890625 122.82421875 C100.2890625 120.51421875 100.2890625 118.20421875 100.2890625 115.82421875 C97.6490625 115.82421875 95.0090625 115.82421875 92.2890625 115.82421875 C92.2890625 114.83421875 92.2890625 113.84421875 92.2890625 112.82421875 C95.7540625 112.32921875 95.7540625 112.32921875 99.2890625 111.82421875 C97.3090625 107.53421875 95.3290625 103.24421875 93.2890625 98.82421875 C102.03678922 99.96975439 109.29392361 102.11016487 117.2890625 105.82421875 C117.82250414 103.11783121 118.34107179 100.40994671 118.8515625 97.69921875 C119.00302734 96.93867188 119.15449219 96.178125 119.31054688 95.39453125 C119.44912109 94.646875 119.58769531 93.89921875 119.73046875 93.12890625 C119.86138916 92.44812012 119.99230957 91.76733398 120.12719727 91.06591797 C120.42365699 88.18255011 120.42365699 88.18255011 119.2890625 82.82421875 C124.2390625 82.82421875 129.1890625 82.82421875 134.2890625 82.82421875 C131.648334 69.62057625 123.34353634 57.5798808 114.2890625 47.82421875 C113.6290625 47.82421875 112.9690625 47.82421875 112.2890625 47.82421875 C112.6190625 46.50421875 112.9490625 45.18421875 113.2890625 43.82421875 C119.39996733 43.7247646 125.26309677 43.75293595 131.2890625 44.82421875 C135.34099989 36.97359006 136.39618411 29.60521271 135.2890625 20.82421875 C134.03609709 17.53957579 132.50981074 15.43459287 129.2890625 13.82421875 Z M60.51953125 152.71484375 C57.32567028 154.30338406 54.10481638 154.379277 50.6015625 154.57421875 C49.89128906 154.61732178 49.18101563 154.6604248 48.44921875 154.70483398 C43.06369624 154.9560519 38.47530054 154.39861244 33.2890625 152.82421875 C34.1934694 162.95357608 36.84416072 169.64656985 44.2890625 176.82421875 C44.6190625 176.82421875 44.9490625 176.82421875 45.2890625 176.82421875 C45.6190625 174.51421875 45.9490625 172.20421875 46.2890625 169.82421875 C47.6090625 169.82421875 48.9290625 169.82421875 50.2890625 169.82421875 C51.23468127 171.1751027 52.16642284 172.53888255 53.0078125 173.95703125 C55.57074231 177.69203262 59.02664212 180.7043313 62.2890625 183.82421875 C66.45202711 182.47052746 68.67659402 180.73777986 71.5390625 177.44921875 C72.22484375 176.67835938 72.910625 175.9075 73.6171875 175.11328125 C75.22207523 172.91593496 75.8767138 171.48022949 76.2890625 168.82421875 C77.9390625 168.82421875 79.5890625 168.82421875 81.2890625 168.82421875 C81.2890625 171.79421875 81.2890625 174.76421875 81.2890625 177.82421875 C87.56479729 173.52085775 91.52351818 167.2074041 93.2890625 159.82421875 C93.31608706 157.82440134 93.31952988 155.82398667 93.2890625 153.82421875 C91.62230469 153.96730469 91.62230469 153.96730469 89.921875 154.11328125 C80.9448748 154.80979875 72.92000225 155.11607754 64.27734375 152.12890625 C62.26215938 151.62348623 62.26215938 151.62348623 60.51953125 152.71484375 Z " fill="white" transform="translate(32.7109375,90.17578125)"/>
<path d="M0 0 C52.75 0 52.75 0 64.3125 11.25 C68.88788069 18.70617593 70.12717945 26.97898311 68.53125 35.50390625 C66.57316039 43.13812468 62.58673045 48.56291412 57 54 C57.65226562 54.40089844 58.30453125 54.80179688 58.9765625 55.21484375 C66.10047886 59.84854156 71.26494044 64.79482132 74 73 C74.79838561 84.64857687 74.30024668 93.3389329 66.42553711 102.56396484 C64.10927205 104.89728752 61.54212481 106.26763821 58.625 107.75 C57.54476562 108.32234375 56.46453125 108.8946875 55.3515625 109.484375 C38.2605578 115.43707682 16.9952005 113 0 113 C0 75.71 0 38.42 0 0 Z M19 18 C19 27.9 19 37.8 19 48 C32.97159709 48.93771104 32.97159709 48.93771104 44.875 43.625 C48.70338691 38.89581617 49.45433367 35.49172272 49.3125 29.47265625 C48.84228626 25.75209001 47.52775595 23.72731563 45 21 C39.617789 17.45110462 34.82634187 17.64133448 28.625 17.8125 C25.44875 17.874375 22.2725 17.93625 19 18 Z M19 66 C19 75.57 19 85.14 19 95 C36.66414294 96.03325569 36.66414294 96.03325569 52 89 C54.67403258 84.514526 55.55511664 80.92814154 54.6328125 75.85546875 C53.14680727 71.49835465 49.92840554 69.51426991 46.06640625 67.375 C40.91164894 65.23823939 35.54517053 65.68080402 30.0625 65.8125 C24.5865625 65.9053125 24.5865625 65.9053125 19 66 Z " fill="white" transform="translate(212,133)"/>
<path d="M0 0 C53.22705314 0 53.22705314 0 64 10 C64.55429687 10.51304687 65.10859375 11.02609375 65.6796875 11.5546875 C72.8511388 19.0115697 74.57170469 28.09223239 74.40234375 38.15039062 C73.96644136 48.52288602 70.72784113 57.2044539 63.34765625 64.671875 C59.52405197 68 59.52405197 68 57 68 C61.11870361 75.85214943 65.6628238 83.30112755 70.5625 90.6875 C73.04687765 94.45493609 75.52610203 98.2256748 78 102 C78.52062012 102.78584473 79.04124023 103.57168945 79.57763672 104.38134766 C80.2643042 105.43974854 80.2643042 105.43974854 80.96484375 106.51953125 C81.36179443 107.12514893 81.75874512 107.7307666 82.16772461 108.35473633 C83 110 83 110 83 113 C75.74255379 114.19633557 68.13938002 115.19081742 61 113 C55.77314042 108.93816334 53.19925036 102.54356845 50.39160156 96.70849609 C48.07026824 92.1904484 45.14934213 88.09875844 42.25 83.9375 C41.22860747 82.45055994 40.21246158 80.95999362 39.203125 79.46484375 C38.77676758 78.842146 38.35041016 78.21944824 37.91113281 77.57788086 C37 76 37 76 37 74 C31.06 74 25.12 74 19 74 C19 86.87 19 99.74 19 113 C12.73 113 6.46 113 0 113 C0 75.71 0 38.42 0 0 Z M19 18 C19 30.54 19 43.08 19 56 C33.9581269 56.66554934 33.9581269 56.66554934 47.9375 52.3125 C52.49673929 47.20062565 55.32355864 42.00180903 55 35 C53.64018026 27.81581961 50.71916131 23.58920031 44.6809082 19.38549805 C41.6585454 17.82353567 39.85674521 17.65044561 36.48046875 17.70703125 C35.09831177 17.71827026 35.09831177 17.71827026 33.68823242 17.72973633 C32.53299072 17.75704834 31.37774902 17.78436035 30.1875 17.8125 C26.495625 17.874375 22.80375 17.93625 19 18 Z " fill="white" transform="translate(826,133)"/>
<path d="M0 0 C25.08 0 50.16 0 76 0 C76 5.94 76 11.88 76 18 C57.19 18 38.38 18 19 18 C19 27.57 19 37.14 19 47 C35.5 47 52 47 69 47 C69 52.94 69 58.88 69 65 C52.5 65 36 65 19 65 C19 74.9 19 84.8 19 95 C38.47 95 57.94 95 78 95 C78 100.94 78 106.88 78 113 C52.26 113 26.52 113 0 113 C0 75.71 0 38.42 0 0 Z " fill="white" transform="translate(306,133)"/>
<path d="M0 0 C3 1 3 1 4.1060791 2.86749268 C4.4507019 3.68884705 4.79532471 4.51020142 5.15039062 5.35644531 C5.55 6.29386566 5.94960938 7.23128601 6.36132812 8.19711304 C6.78865234 9.23034698 7.21597656 10.26358093 7.65625 11.328125 C8.33880859 12.94190536 8.33880859 12.94190536 9.03515625 14.58828735 C10.5336714 18.1379775 12.01677481 21.69389712 13.5 25.25 C14.53217852 27.70242512 15.56523515 30.15445939 16.59960938 32.60595703 C18.71339303 37.61974173 20.82032274 42.63635016 22.921875 47.65527344 C27.02604551 57.45600427 31.1632892 67.24273119 35.29907227 77.03015137 C36.4664741 79.79558132 37.63116597 82.56213562 38.79492188 85.32910156 C39.519399 87.05018588 40.24400444 88.7712162 40.96875 90.4921875 C41.30966675 91.30224243 41.6505835 92.11229736 42.00183105 92.94689941 C43.66595019 96.88844594 45.3522256 100.81823783 47.08203125 104.73144531 C47.41078247 105.47524445 47.73953369 106.21904358 48.07824707 106.98538208 C48.69663379 108.37881164 49.31842425 109.77073751 49.94421387 111.16085815 C52 115.78332909 52 115.78332909 52 118 C44.74 118 37.48 118 30 118 C20 94.28571429 20 94.28571429 20 91 C6.8 91.33 -6.4 91.66 -20 92 C-23.24879939 100.18137425 -23.24879939 100.18137425 -26.49194336 108.36499023 C-26.89550049 109.37762939 -27.29905762 110.39026855 -27.71484375 111.43359375 C-28.33540649 112.99678345 -28.33540649 112.99678345 -28.96850586 114.59155273 C-30 117 -30 117 -31 118 C-32.41570123 118.08651611 -33.835595 118.10704904 -35.25390625 118.09765625 C-36.10791016 118.09443359 -36.96191406 118.09121094 -37.84179688 118.08789062 C-38.73962891 118.07951172 -39.63746094 118.07113281 -40.5625 118.0625 C-41.46419922 118.05798828 -42.36589844 118.05347656 -43.29492188 118.04882812 C-45.53001314 118.03700225 -47.76497437 118.0205222 -50 118 C-47.66240492 110.41951308 -44.60716221 103.20379581 -41.44961548 95.93630981 C-39.77447977 92.07962705 -38.11237683 88.21732832 -36.44921875 84.35546875 C-36.09377487 83.53078598 -35.73833099 82.70610321 -35.37211609 81.85643005 C-31.37911919 72.58001484 -27.45692954 63.27387756 -23.53607178 53.96679688 C-12.15877179 26.96138745 -12.15877179 26.96138745 -6.65072632 14.06686401 C-5.89490641 12.2966237 -5.14139152 10.5253998 -4.38793945 8.75415039 C-3.94796631 7.72668701 -3.50799316 6.69922363 -3.0546875 5.640625 C-2.67812012 4.75922852 -2.30155273 3.87783203 -1.91357422 2.96972656 C-1 1 -1 1 0 0 Z M-1 43 C-2.71337833 47.23407987 -4.42225627 51.46993692 -6.12695312 55.70751953 C-6.70774363 57.14942616 -7.28977 58.59083563 -7.87304688 60.03173828 C-8.71027311 62.10059835 -9.54306709 64.17119419 -10.375 66.2421875 C-10.63748535 66.88807831 -10.8999707 67.53396912 -11.17041016 68.19943237 C-12.55021946 71.49619957 -12.55021946 71.49619957 -13 75 C-4.42 75 4.16 75 13 75 C10.62678737 66.95665768 10.62678737 66.95665768 7.73828125 59.2109375 C7.34189453 58.25058594 6.94550781 57.29023438 6.53710938 56.30078125 C6.13298828 55.33527344 5.72886719 54.36976563 5.3125 53.375 C4.68891602 51.86873047 4.68891602 51.86873047 4.05273438 50.33203125 C3.03945904 47.88619424 2.02183204 45.4422715 1 43 C0.34 43 -0.32 43 -1 43 Z " fill="white" transform="translate(761,127)"/>
<path d="M0 0 C3 1 3 1 4.1060791 2.86749268 C4.4507019 3.68884705 4.79532471 4.51020142 5.15039062 5.35644531 C5.55 6.29386566 5.94960938 7.23128601 6.36132812 8.19711304 C6.78865234 9.23034698 7.21597656 10.26358093 7.65625 11.328125 C8.33880859 12.94190536 8.33880859 12.94190536 9.03515625 14.58828735 C10.5336714 18.1379775 12.01677481 21.69389712 13.5 25.25 C14.53217852 27.70242512 15.56523515 30.15445939 16.59960938 32.60595703 C18.71339303 37.61974173 20.82032274 42.63635016 22.921875 47.65527344 C27.02604551 57.45600427 31.1632892 67.24273119 35.29907227 77.03015137 C36.4664741 79.79558132 37.63116597 82.56213562 38.79492188 85.32910156 C39.519399 87.05018588 40.24400444 88.7712162 40.96875 90.4921875 C41.30966675 91.30224243 41.6505835 92.11229736 42.00183105 92.94689941 C43.66595019 96.88844594 45.3522256 100.81823783 47.08203125 104.73144531 C47.41078247 105.47524445 47.73953369 106.21904358 48.07824707 106.98538208 C48.69663379 108.37881164 49.31842425 109.77073751 49.94421387 111.16085815 C52 115.78332909 52 115.78332909 52 118 C44.74 118 37.48 118 30 118 C20 94.28571429 20 94.28571429 20 91 C6.8 91.33 -6.4 91.66 -20 92 C-23.24879939 100.18137425 -23.24879939 100.18137425 -26.49194336 108.36499023 C-26.89550049 109.37762939 -27.29905762 110.39026855 -27.71484375 111.43359375 C-28.33540649 112.99678345 -28.33540649 112.99678345 -28.96850586 114.59155273 C-30 117 -30 117 -31 118 C-32.41570123 118.08651611 -33.835595 118.10704904 -35.25390625 118.09765625 C-36.10791016 118.09443359 -36.96191406 118.09121094 -37.84179688 118.08789062 C-38.73962891 118.07951172 -39.63746094 118.07113281 -40.5625 118.0625 C-41.46419922 118.05798828 -42.36589844 118.05347656 -43.29492188 118.04882812 C-45.53001314 118.03700225 -47.76497437 118.0205222 -50 118 C-47.66240492 110.41951308 -44.60716221 103.20379581 -41.44961548 95.93630981 C-39.77447977 92.07962705 -38.11237683 88.21732832 -36.44921875 84.35546875 C-36.09377487 83.53078598 -35.73833099 82.70610321 -35.37211609 81.85643005 C-31.37911919 72.58001484 -27.45692954 63.27387756 -23.53607178 53.96679688 C-12.15877179 26.96138745 -12.15877179 26.96138745 -6.65072632 14.06686401 C-5.89490641 12.2966237 -5.14139152 10.5253998 -4.38793945 8.75415039 C-3.94796631 7.72668701 -3.50799316 6.69922363 -3.0546875 5.640625 C-2.67812012 4.75922852 -2.30155273 3.87783203 -1.91357422 2.96972656 C-1 1 -1 1 0 0 Z M-1 43 C-2.71337833 47.23407987 -4.42225627 51.46993692 -6.12695312 55.70751953 C-6.70774363 57.14942616 -7.28977 58.59083563 -7.87304688 60.03173828 C-8.71027311 62.10059835 -9.54306709 64.17119419 -10.375 66.2421875 C-10.63748535 66.88807831 -10.8999707 67.53396912 -11.17041016 68.19943237 C-12.55021946 71.49619957 -12.55021946 71.49619957 -13 75 C-4.42 75 4.16 75 13 75 C10.62678737 66.95665768 10.62678737 66.95665768 7.73828125 59.2109375 C7.34189453 58.25058594 6.94550781 57.29023438 6.53710938 56.30078125 C6.13298828 55.33527344 5.72886719 54.36976563 5.3125 53.375 C4.68891602 51.86873047 4.68891602 51.86873047 4.05273438 50.33203125 C3.03945904 47.88619424 2.02183204 45.4422715 1 43 C0.34 43 -0.32 43 -1 43 Z " fill="white" transform="translate(445,127)"/>
<path d="M0 0 C-1.64566523 5.68502535 -4.29032784 10.76681636 -7 16 C-11.46261535 14.62688759 -15.62667837 12.86654427 -19.8515625 10.90234375 C-24.41140629 8.98720936 -28.48425645 8.80890874 -33.4375 8.75 C-34.73558594 8.72421875 -36.03367187 8.6984375 -37.37109375 8.671875 C-41.16939556 9.01531671 -42.91374023 9.87154499 -46 12 C-46.66 12 -47.32 12 -48 12 C-50.08711529 16.9108595 -50.75035078 20.9511413 -49 26 C-44.77212779 30.96848736 -39.23078272 33.57744454 -33.3125 36 C-31.71675613 36.68589277 -30.12170444 37.37339813 -28.52734375 38.0625 C-27.75503418 38.3925 -26.98272461 38.7225 -26.18701172 39.0625 C-15.80129894 43.51451352 -6.58443541 47.91696335 -1.5 58.5625 C1.60967932 67.57224052 1.44625979 78.15970707 -2.69140625 86.79296875 C-7.8678293 95.52335389 -15.06577946 100.6509236 -24.86938477 103.5534668 C-41.94597288 107.13236902 -59.90941258 103.58217632 -74.375 94.13671875 C-74.91125 93.76160156 -75.4475 93.38648438 -76 93 C-74.51194289 87.19657726 -71.40902445 82.82409121 -68 78 C-63.2465831 79.88210798 -58.54484086 81.87943081 -53.83984375 83.87890625 C-46.32178099 86.84683474 -37.18933109 87.40417194 -29.34375 85.28125 C-26.40704586 83.92247644 -24.21050461 82.22366115 -22 79.875 C-20.52045414 75.62130566 -19.99022368 71.41777142 -21 67 C-24.2757098 62.22216913 -27.26015402 59.94088291 -32.5625 57.4375 C-33.1723877 57.14504395 -33.78227539 56.85258789 -34.41064453 56.55126953 C-38.34441143 54.6889804 -42.34127168 53.01001822 -46.375 51.375 C-55.9743346 47.42832397 -64.17311819 42.20646575 -69.203125 32.734375 C-71.36174324 25.32735162 -71.34218943 14.98808022 -68.3125 7.8125 C-63.97515506 -0.03099137 -58.31271526 -5.06441202 -49.93359375 -8.1171875 C-33.45613582 -12.52640066 -14.14293043 -9.12929901 0 0 Z " fill="white" transform="translate(580,142)"/>
<path d="M0 0 C25.08 0 50.16 0 76 0 C76 5.94 76 11.88 76 18 C66.43 18 56.86 18 47 18 C47 49.35 47 80.7 47 113 C40.73 113 34.46 113 28 113 C28 81.65 28 50.3 28 18 C18.76 18 9.52 18 0 18 C0 12.06 0 6.12 0 0 Z " fill="white" transform="translate(914,133)"/>
<path d="M0 0 C25.08 0 50.16 0 76 0 C76 5.94 76 11.88 76 18 C66.43 18 56.86 18 47 18 C47 49.35 47 80.7 47 113 C40.73 113 34.46 113 28 113 C28 81.65 28 50.3 28 18 C18.76 18 9.52 18 0 18 C0 12.06 0 6.12 0 0 Z " fill="white" transform="translate(592,133)"/>
<path d="M0 0 C13.62863755 2.42250268 28.62492287 2.16751573 42.1796875 -0.59765625 C44.375 -0.9375 44.375 -0.9375 46.375 0.0625 C46.62720978 2.94065871 46.72656139 4.54206169 45.08203125 6.9765625 C39.80274457 11.74424821 35.00077063 13.29112025 28.03515625 14.5546875 C25.46264196 14.78753297 25.46264196 14.78753297 24.375 16.0625 C36.7663192 15.87416455 36.7663192 15.87416455 48.375 12.0625 C49.035 11.0725 49.695 10.0825 50.375 9.0625 C53 8.875 53 8.875 55.375 9.0625 C55.85385491 16.12560995 55.85385491 16.12560995 53.9375 19.875 C49.82065291 23.38938166 45.10410608 24.39432459 39.91796875 25.6640625 C33.84818285 27.25080968 29.67878417 29.68040645 24.796875 33.63671875 C21.72031019 35.44792223 19.89381286 35.51924657 16.375 35.0625 C14.28515625 33.85546875 14.28515625 33.85546875 12.4375 32.25 C7.09144718 27.96107627 1.89722214 26.15834011 -4.75 24.6875 C-9.6929423 23.47496346 -12.79453324 22.5522059 -15.625 18.0625 C-16.28155671 15.05749044 -16.55138739 12.13415337 -16.625 9.0625 C-14.375 8.8125 -14.375 8.8125 -11.625 9.0625 C-11.0578125 9.69285156 -10.490625 10.32320312 -9.90625 10.97265625 C-6.87028911 13.75388755 -4.40394881 14.04452617 -0.375 14.75 C0.29088135 14.87028564 0.9567627 14.99057129 1.64282227 15.11450195 C6.2039315 15.92169423 10.7677485 16.5923723 15.375 17.0625 C15.375 16.4025 15.375 15.7425 15.375 15.0625 C14.27800781 14.83175781 13.18101563 14.60101563 12.05078125 14.36328125 C10.59613727 14.03481325 9.14172174 13.70533235 7.6875 13.375 C6.96626953 13.22611328 6.24503906 13.07722656 5.50195312 12.92382812 C0.45875643 11.74938506 -2.18738297 10.13111366 -5.625 6.0625 C-5.955 5.7325 -6.285 5.4025 -6.625 5.0625 C-6.66563832 3.39632885 -6.667721 1.72861905 -6.625 0.0625 C-3.96469424 -1.26765288 -2.89404461 -0.65308086 0 0 Z " fill="white" transform="translate(76.625,125.9375)"/>
<path d="M0 0 C1.66895972 0.9546585 3.2739737 2.01948076 4.86328125 3.1015625 C4.86328125 3.7615625 4.86328125 4.4215625 4.86328125 5.1015625 C-2.88671875 5.2265625 -2.88671875 5.2265625 -5.13671875 4.1015625 C-5.22953125 5.1225 -5.22953125 5.1225 -5.32421875 6.1640625 C-6.73463098 11.26324517 -9.49824032 14.86271295 -13.69921875 18.0390625 C-18.82371946 19.62299908 -23.81583377 19.33402835 -29.13671875 19.1015625 C-28.47671875 22.0715625 -27.81671875 25.0415625 -27.13671875 28.1015625 C-31.13671875 27.1015625 -31.13671875 27.1015625 -32.83984375 24.51171875 C-35.94422832 17.79339153 -38.720098 11.60738914 -37.13671875 4.1015625 C-36.47671875 3.4415625 -35.81671875 2.7815625 -35.13671875 2.1015625 C-33.81671875 2.1015625 -32.49671875 2.1015625 -31.13671875 2.1015625 C-31.13671875 5.0715625 -31.13671875 8.0415625 -31.13671875 11.1015625 C-30.605625 10.70324219 -30.07453125 10.30492187 -29.52734375 9.89453125 C-27.39713542 8.296875 -25.26692708 6.69921875 -23.13671875 5.1015625 C-22.4509375 4.56144531 -21.76515625 4.02132812 -21.05859375 3.46484375 C-19.13671875 2.1015625 -19.13671875 2.1015625 -16.13671875 1.1015625 C-15.43546875 0.7509375 -14.73421875 0.4003125 -14.01171875 0.0390625 C-9.34681323 -1.48210234 -4.60739197 -1.93729461 0 0 Z M-20.26171875 11.1015625 C-20.88046875 11.7615625 -21.49921875 12.4215625 -22.13671875 13.1015625 C-18.41057722 11.98301664 -18.41057722 11.98301664 -16.13671875 9.1015625 C-18.38034448 8.8731076 -18.38034448 8.8731076 -20.26171875 11.1015625 Z " fill="white" transform="translate(142.13671875,163.8984375)"/>
<path d="M0 0 C5.5287019 2.73356753 10.1310101 5.67955335 14.73852539 9.73388672 C15.77858241 6.35370141 15.81857021 3.25585882 15.73852539 -0.26611328 C17.61352539 -0.07861328 17.61352539 -0.07861328 19.73852539 0.73388672 C22.13818323 4.39050818 21.98798779 7.92699762 21.42993164 12.10888672 C20.05199754 17.34036535 17.34491634 22.02325354 14.73852539 26.73388672 C13.74852539 26.73388672 12.75852539 26.73388672 11.73852539 26.73388672 C12.06852539 24.09388672 12.39852539 21.45388672 12.73852539 18.73388672 C12.01407227 18.69650391 11.28961914 18.65912109 10.54321289 18.62060547 C3.61036286 18.14917167 -1.58439179 17.63405977 -6.51147461 12.29638672 C-10.26147461 6.80531529 -10.26147461 6.80531529 -10.26147461 2.73388672 C-11.25147461 3.06388672 -12.24147461 3.39388672 -13.26147461 3.73388672 C-15.59447286 3.77342906 -17.9285565 3.77790404 -20.26147461 3.73388672 C-20.26147461 2.74388672 -20.26147461 1.75388672 -20.26147461 0.73388672 C-12.77194742 -3.01087688 -7.70746149 -3.62859522 0 0 Z M0.73852539 7.73388672 C0.73852539 8.39388672 0.73852539 9.05388672 0.73852539 9.73388672 C2.22352539 10.72388672 2.22352539 10.72388672 3.73852539 11.73388672 C4.72852539 11.40388672 5.71852539 11.07388672 6.73852539 10.73388672 C4.75852539 9.74388672 2.77852539 8.75388672 0.73852539 7.73388672 Z " fill="white" transform="translate(66.261474609375,165.26611328125)"/>
<path d="M0 0 C9.9 0 19.8 0 30 0 C30 5.28 30 10.56 30 16 C20.1 16 10.2 16 0 16 C0 10.72 0 5.44 0 0 Z " fill="white" transform="translate(671,203)"/>
<path d="M0 0 C1.32 0.66 2.64 1.32 4 2 C4.0867562 6.29154022 4.1403089 10.58285668 4.1875 14.875 C4.21263672 16.09832031 4.23777344 17.32164062 4.26367188 18.58203125 C4.27817383 20.33193359 4.27817383 20.33193359 4.29296875 22.1171875 C4.3086792 23.19597168 4.32438965 24.27475586 4.34057617 25.38623047 C4.22818604 26.24877441 4.1157959 27.11131836 4 28 C3.01 28.66 2.02 29.32 1 30 C-1 29 -1 29 -2 26 C-2.23230094 21.98295057 -2.18516508 17.96056113 -2.1875 13.9375 C-2.19974609 12.82310547 -2.21199219 11.70871094 -2.22460938 10.56054688 C-2.22654297 9.49771484 -2.22847656 8.43488281 -2.23046875 7.33984375 C-2.23457764 6.36394287 -2.23868652 5.38804199 -2.24291992 4.38256836 C-2 2 -2 2 0 0 Z " fill="white" transform="translate(95,243)"/>
<path d="M0 0 C2 1 2 1 2 1 Z " fill="white" transform="translate(129,162)"/>
<path d="" fill="white" transform="translate(0,0)"/>
<path d="" fill="white" transform="translate(0,0)"/>
<path d="" fill="white" transform="translate(0,0)"/>
<path d="" fill="white" transform="translate(0,0)"/>
</svg>
