<?xml version="1.0" encoding="UTF-8"?>
<!DOCTYPE svg PUBLIC "-//W3C//DTD SVG 1.1//EN" "http://www.w3.org/Graphics/SVG/1.1/DTD/svg11.dtd">
<svg xmlns="http://www.w3.org/2000/svg" version="1.1" width="1000px" height="1000px" style="shape-rendering:geometricPrecision; text-rendering:geometricPrecision; image-rendering:optimizeQuality; fill-rule:evenodd; clip-rule:evenodd" xmlns:xlink="http://www.w3.org/1999/xlink">
<g><path style="opacity:0.935" fill="#000000" d="M 161.5,6.5 C 164.187,6.33591 166.854,6.50258 169.5,7C 181.53,18.6957 193.196,30.6957 204.5,43C 212.766,49.2622 220.432,56.2622 227.5,64C 237.984,72.0776 248.984,79.4109 260.5,86C 270.868,90.2593 281.535,93.5926 292.5,96C 316.463,97.8698 340.463,98.5364 364.5,98C 456.167,66.6667 547.833,66.6667 639.5,98C 663.537,98.5364 687.537,97.8698 711.5,96C 725.912,93.2517 739.579,88.4184 752.5,81.5C 758.694,76.8058 765.028,72.3058 771.5,68C 780.536,59.2958 789.869,50.9625 799.5,43C 810.804,30.6957 822.47,18.6957 834.5,7C 837.167,6.33333 839.833,6.33333 842.5,7C 880.039,21.871 907.206,47.7044 924,84.5C 931.782,106.535 934.448,129.201 932,152.5C 928.745,182.256 921.411,210.922 910,238.5C 899.334,260.179 885.167,279.345 867.5,296C 878.646,315.617 888.313,335.617 896.5,356C 900.94,362.949 904.44,370.449 907,378.5C 914.61,400.996 921.61,423.662 928,446.5C 931.609,459.596 933.109,472.93 932.5,486.5C 902.228,483.507 871.895,481.174 841.5,479.5C 841.303,493.842 840.803,508.175 840,522.5C 838.981,532.934 837.648,543.267 836,553.5C 852.57,562.736 865.903,575.403 876,591.5C 877.004,594.993 876.504,598.159 874.5,601C 862.053,604.371 849.553,607.538 837,610.5C 806.038,604.599 774.871,603.099 743.5,606C 740.364,606.315 737.697,607.482 735.5,609.5C 736.09,610.799 737.09,611.632 738.5,612C 789.308,630.142 826.142,663.642 849,712.5C 849.814,714.902 849.647,717.235 848.5,719.5C 844.793,720.806 841.126,720.64 837.5,719C 813.016,707.924 788.682,696.59 764.5,685C 750.21,679.848 735.876,675.015 721.5,670.5C 721.187,673.247 721.52,675.914 722.5,678.5C 741.166,688.321 756.999,701.655 770,718.5C 785.714,739.59 798.048,762.59 807,787.5C 811.576,799.133 814.243,811.133 815,823.5C 812.847,825.444 810.347,825.944 807.5,825C 777.753,801.926 747.419,779.593 716.5,758C 711.494,754.818 706.161,752.818 700.5,752C 698.612,754.19 696.445,756.023 694,757.5C 693.077,759.034 692.577,760.701 692.5,762.5C 693.631,782.482 693.798,802.482 693,822.5C 691.559,842.599 686.226,861.599 677,879.5C 670.58,889.341 663.913,899.007 657,908.5C 652.582,912.247 648.916,916.58 646,921.5C 624.142,944.362 599.642,963.862 572.5,980C 567.653,982.991 562.819,983.157 558,980.5C 557.554,973.811 556.887,967.144 556,960.5C 539.403,974.128 521.403,985.461 502,994.5C 482.597,985.461 464.597,974.128 448,960.5C 447.113,967.144 446.446,973.811 446,980.5C 441.181,983.157 436.347,982.991 431.5,980C 404.358,963.862 379.858,944.362 358,921.5C 355.084,916.58 351.418,912.247 347,908.5C 332.063,890.865 321.396,870.865 315,848.5C 312.8,839.967 311.467,831.301 311,822.5C 310.202,802.482 310.369,782.482 311.5,762.5C 311.423,760.701 310.923,759.034 310,757.5C 307.555,756.023 305.388,754.19 303.5,752C 297.839,752.818 292.506,754.818 287.5,758C 256.581,779.593 226.247,801.926 196.5,825C 193.653,825.944 191.153,825.444 189,823.5C 189.757,811.133 192.424,799.133 197,787.5C 209.257,751.136 229.424,719.969 257.5,694C 264.99,688.086 272.99,682.919 281.5,678.5C 282.48,675.914 282.813,673.247 282.5,670.5C 268.124,675.015 253.79,679.848 239.5,685C 215.318,696.59 190.984,707.924 166.5,719C 162.874,720.64 159.207,720.806 155.5,719.5C 154.353,717.235 154.186,714.902 155,712.5C 177.858,663.642 214.692,630.142 265.5,612C 266.91,611.632 267.91,610.799 268.5,609.5C 266.303,607.482 263.636,606.315 260.5,606C 229.129,603.099 197.962,604.599 167,610.5C 153.689,607.614 140.689,603.947 128,599.5C 127.333,596.833 127.333,594.167 128,591.5C 138.097,575.403 151.43,562.736 168,553.5C 166.352,543.267 165.019,532.934 164,522.5C 163.197,508.175 162.697,493.842 162.5,479.5C 132.105,481.174 101.772,483.507 71.5,486.5C 70.891,472.93 72.391,459.596 76,446.5C 84.3155,414.938 94.4821,384.438 106.5,355C 115.234,338.479 123.401,321.645 131,304.5C 132.709,301.582 134.542,298.748 136.5,296C 118.833,279.345 104.666,260.179 94,238.5C 82.5885,210.922 75.2552,182.256 72,152.5C 66.4795,101.402 83.6462,59.9015 123.5,28C 135.775,20.0324 148.441,12.8658 161.5,6.5 Z M 782.5,664.5 C 767.305,659.157 752.305,653.324 737.5,647C 717.941,640.444 697.941,635.777 677.5,633C 667.833,632.333 658.167,632.333 648.5,633C 645.833,635.333 645.833,637.667 648.5,640C 663.913,642.516 678.58,647.183 692.5,654C 689.474,662.744 686.641,671.578 684,680.5C 682.812,684.741 683.645,688.408 686.5,691.5C 678.639,687.737 670.639,684.237 662.5,681C 659.05,679.571 655.717,679.405 652.5,680.5C 651.371,682.628 651.204,684.961 652,687.5C 658.744,692.788 665.577,697.955 672.5,703C 656.157,724.17 635.49,739.504 610.5,749C 589.135,756.241 567.801,756.241 546.5,749C 538.146,744.982 531.313,739.148 526,731.5C 522.103,725.261 522.936,719.761 528.5,715C 542.014,707.076 555.681,699.409 569.5,692C 577.247,686.924 584.413,681.091 591,674.5C 595.727,668.103 600.06,661.436 604,654.5C 612.654,627.071 613.654,599.404 607,571.5C 604.199,570.205 601.366,570.205 598.5,571.5C 596.879,584.438 594.046,597.104 590,609.5C 586.689,617.59 580.855,623.09 572.5,626C 524.157,639.09 475.99,638.59 428,624.5C 424.993,622.497 421.993,620.497 419,618.5C 417.08,615.661 415.413,612.661 414,609.5C 409.954,597.104 407.121,584.438 405.5,571.5C 402.634,570.205 399.801,570.205 397,571.5C 395.173,575.281 394.173,579.281 394,583.5C 391.781,601.219 392.114,618.886 395,636.5C 396.47,644.91 399.137,652.91 403,660.5C 406.333,665.167 409.667,669.833 413,674.5C 428.887,688.87 446.72,700.37 466.5,709C 469.328,711.248 472.328,713.248 475.5,715C 481.685,721.204 481.851,727.704 476,734.5C 459.691,751.158 439.858,757.658 416.5,754C 393.387,750.439 372.72,741.439 354.5,727C 346.497,719.33 338.83,711.33 331.5,703C 338.423,697.955 345.256,692.788 352,687.5C 352.796,684.961 352.629,682.628 351.5,680.5C 348.283,679.405 344.95,679.571 341.5,681C 333.361,684.237 325.361,687.737 317.5,691.5C 320.355,688.408 321.188,684.741 320,680.5C 317.359,671.578 314.526,662.744 311.5,654C 325.42,647.183 340.087,642.516 355.5,640C 358.167,637.667 358.167,635.333 355.5,633C 336.206,631.32 317.206,632.987 298.5,638C 287.744,640.689 277.078,643.689 266.5,647C 251.695,653.324 236.695,659.157 221.5,664.5C 223.253,662.777 225.253,661.277 227.5,660C 239.54,653.98 251.54,647.98 263.5,642C 277.974,637.54 292.641,634.04 307.5,631.5C 309.062,628.037 309.895,624.37 310,620.5C 310.301,612.475 310.801,604.475 311.5,596.5C 314.799,595.978 318.133,595.645 321.5,595.5C 331.821,596.611 342.154,597.111 352.5,597C 353.833,594.333 353.833,591.667 352.5,589C 327.122,579.909 301.289,575.409 275,575.5C 274.25,574.874 273.416,574.374 272.5,574C 256.5,573.333 240.5,573.333 224.5,574C 221.905,574.226 219.405,574.726 217,575.5C 216.667,575.167 216.333,574.833 216,574.5C 214,575.167 212,575.833 210,576.5C 209.729,574.193 210.895,573.026 213.5,573C 246.74,565.464 279.74,566.13 312.5,575C 313.931,574.535 315.097,573.701 316,572.5C 320.444,564.499 324.111,556.165 327,547.5C 331.08,539.671 335.413,532.004 340,524.5C 340.777,521.571 340.61,518.737 339.5,516C 322.452,516.075 305.785,518.742 289.5,524C 273.713,531.06 258.046,538.393 242.5,546C 233.919,551.876 225.085,557.376 216,562.5C 210.494,526.132 204.994,489.798 199.5,453.5C 200.21,450.327 201.377,447.327 203,444.5C 203.667,441.833 203.667,439.167 203,436.5C 187.645,429.842 171.812,428.675 155.5,433C 144.383,435.03 133.383,437.53 122.5,440.5C 123.253,433.237 124.753,425.904 127,418.5C 150.685,349.842 188.185,289.509 239.5,237.5C 240.777,234.966 240.777,232.466 239.5,230C 208.446,226.804 178.612,231.304 150,243.5C 133.522,215.736 123.189,185.736 119,153.5C 112.994,114.195 126.161,83.1952 158.5,60.5C 166.778,68.1216 174.778,75.9549 182.5,84C 191.874,92.0101 201.207,100.01 210.5,108C 224.769,117.302 239.769,125.302 255.5,132C 269.514,136.536 283.847,139.536 298.5,141C 287.125,158.918 275.625,176.752 264,194.5C 262.159,203.79 265.326,205.957 273.5,201C 286.167,192 298.833,183 311.5,174C 353.471,146.558 399.137,127.892 448.5,118C 453.143,117.17 457.81,116.503 462.5,116C 516.28,109.389 568.28,116.056 618.5,136C 632.404,141.618 646.071,147.785 659.5,154.5C 670.37,161.199 681.37,167.699 692.5,174C 706.167,183.667 719.833,193.333 733.5,203C 735.5,203.667 737.5,203.667 739.5,203C 740.872,199.459 740.706,195.959 739,192.5C 727.709,175.419 716.542,158.252 705.5,141C 727.633,138.884 748.633,132.884 768.5,123C 776.833,118 785.167,113 793.5,108C 802.793,100.01 812.126,92.0101 821.5,84C 829.222,75.9549 837.222,68.1216 845.5,60.5C 880.192,85.1757 893.026,118.509 884,160.5C 879.64,190.313 869.64,217.98 854,243.5C 825.388,231.304 795.554,226.804 764.5,230C 763.223,232.466 763.223,234.966 764.5,237.5C 815.815,289.509 853.315,349.842 877,418.5C 879.247,425.904 880.747,433.237 881.5,440.5C 860.951,434.155 839.951,430.989 818.5,431C 812.509,432.454 806.676,434.287 801,436.5C 800.333,439.167 800.333,441.833 801,444.5C 802.623,447.327 803.79,450.327 804.5,453.5C 799.006,489.798 793.506,526.132 788,562.5C 778.915,557.376 770.081,551.876 761.5,546C 745.954,538.393 730.287,531.06 714.5,524C 698.215,518.742 681.548,516.075 664.5,516C 663.39,518.737 663.223,521.571 664,524.5C 667.081,530.331 670.415,535.998 674,541.5C 678.392,551.952 683.059,562.285 688,572.5C 688.903,573.701 690.069,574.535 691.5,575C 724.26,566.13 757.26,565.464 790.5,573C 793.105,573.026 794.271,574.193 794,576.5C 792,575.833 790,575.167 788,574.5C 749.346,572.15 711.179,574.65 673.5,582C 666.105,584.132 658.772,586.465 651.5,589C 650.167,591.667 650.167,594.333 651.5,597C 661.846,597.111 672.179,596.611 682.5,595.5C 685.867,595.645 689.201,595.978 692.5,596.5C 693.199,604.475 693.699,612.475 694,620.5C 694.105,624.37 694.938,628.037 696.5,631.5C 711.359,634.04 726.026,637.54 740.5,642C 752.46,647.98 764.46,653.98 776.5,660C 778.747,661.277 780.747,662.777 782.5,664.5 Z M 342.5,419.5 C 356.686,428.172 371.019,436.672 385.5,445C 368.081,450.522 354.581,445.355 345,429.5C 343.974,426.198 343.14,422.865 342.5,419.5 Z M 660.5,419.5 C 660.489,429.117 656.155,436.617 647.5,442C 642.539,445.044 637.205,447.21 631.5,448.5C 627.144,447.437 622.811,446.271 618.5,445C 632.934,437.034 646.934,428.534 660.5,419.5 Z M 311.5,694.5 C 299.013,703.47 286.346,712.304 273.5,721C 261.972,731.032 250.639,741.199 239.5,751.5C 242.358,745.796 245.858,740.463 250,735.5C 267.185,716.807 287.685,703.14 311.5,694.5 Z M 692.5,694.5 C 716.315,703.14 736.815,716.807 754,735.5C 758.142,740.463 761.642,745.796 764.5,751.5C 753.361,741.199 742.028,731.032 730.5,721C 717.654,712.304 704.987,703.47 692.5,694.5 Z M 511.5,780.5 C 511.167,779.833 510.833,779.167 510.5,778.5C 513.761,781.241 517.428,783.408 521.5,785C 550.986,793.02 580.986,795.687 611.5,793C 629.865,790.99 647.531,786.323 664.5,779C 665.944,778.219 667.277,778.386 668.5,779.5C 665.323,805.553 660.156,831.22 653,856.5C 640.105,883.089 622.271,905.923 599.5,925C 596.308,927.692 592.975,930.192 589.5,932.5C 587.79,914.879 586.623,897.213 586,879.5C 583.936,878.409 581.769,878.242 579.5,879C 572.549,887.062 566.715,895.895 562,905.5C 544.536,925.135 525.703,943.135 505.5,959.5C 504.721,957.073 503.554,957.073 502,959.5C 499.585,956.83 498.418,956.83 498.5,959.5C 488.736,951.908 479.403,943.742 470.5,935C 461.364,924.863 451.864,915.03 442,905.5C 437.285,895.895 431.451,887.062 424.5,879C 422.231,878.242 420.064,878.409 418,879.5C 417.377,897.213 416.21,914.879 414.5,932.5C 394.772,917.939 377.938,900.606 364,880.5C 359.652,872.468 355.319,864.468 351,856.5C 343.844,831.22 338.677,805.553 335.5,779.5C 336.723,778.386 338.056,778.219 339.5,779C 363.724,789.678 389.057,794.511 415.5,793.5C 438.315,794.351 460.648,791.517 482.5,785C 484.754,783.623 486.92,782.123 489,780.5C 490.333,781.833 491.667,781.833 493,780.5C 493.167,831.837 493.667,883.17 494.5,934.5C 499.5,938.5 504.5,938.5 509.5,934.5C 510.167,883.002 510.833,831.668 511.5,780.5 Z"/></g>
<g><path style="opacity:0.909" fill="#000000" d="M 496.5,137.5 C 500.007,136.994 503.174,137.66 506,139.5C 509.576,136.715 510.909,137.715 510,142.5C 505.741,140.05 505.575,140.384 509.5,143.5C 510.197,155.018 510.864,166.518 511.5,178C 511.095,178.945 510.428,179.612 509.5,180C 510.833,184.333 510.833,188.667 509.5,193C 521.882,199.22 535.048,202.387 549,202.5C 558.212,202.18 567.378,201.347 576.5,200C 591.785,197.176 607.119,194.676 622.5,192.5C 627.505,191.252 630.172,193.086 630.5,198C 630.385,200.732 629.552,203.232 628,205.5C 619.82,214.346 610.986,222.513 601.5,230C 596.156,233.115 590.489,235.448 584.5,237C 568.812,240.226 553.145,243.559 537.5,247C 533.271,248.115 529.271,249.781 525.5,252C 520.597,256.908 516.43,262.408 513,268.5C 510.604,274.359 510.104,280.359 511.5,286.5C 515.641,284.62 519.974,283.453 524.5,283C 560.916,278.879 597.249,273.879 633.5,268C 644.232,266.55 653.398,262.05 661,254.5C 665.289,248.755 669.456,242.921 673.5,237C 679.909,235.386 682.242,237.886 680.5,244.5C 680.745,262.844 673.412,277.344 658.5,288C 645.827,294.893 632.493,300.226 618.5,304C 574.707,309.729 537.707,328.395 507.5,360C 503.833,360.667 500.167,360.667 496.5,360C 466.293,328.395 429.293,309.729 385.5,304C 370.216,300.132 355.883,294.132 342.5,286C 329.512,275.191 323.178,261.358 323.5,244.5C 321.758,237.886 324.091,235.386 330.5,237C 334.544,242.921 338.711,248.755 343,254.5C 350.602,262.05 359.768,266.55 370.5,268C 406.751,273.879 443.084,278.879 479.5,283C 484.026,283.453 488.359,284.62 492.5,286.5C 494.195,277.937 492.695,269.937 488,262.5C 484.805,258.974 481.638,255.474 478.5,252C 474.729,249.781 470.729,248.115 466.5,247C 450.855,243.559 435.188,240.226 419.5,237C 405.998,233.001 394.498,225.835 385,215.5C 382.37,211.868 379.37,208.535 376,205.5C 373.059,201.32 372.892,197.153 375.5,193C 377.5,192.833 379.5,192.667 381.5,192.5C 396.881,194.676 412.215,197.176 427.5,200C 444.943,203.579 462.276,203.246 479.5,199C 485.404,196.691 491.404,194.691 497.5,193C 496.207,192.51 494.873,192.343 493.5,192.5C 493.189,185.91 493.522,179.41 494.5,173C 492.58,167.803 491.913,162.303 492.5,156.5C 493.552,156.649 494.552,156.483 495.5,156C 494.257,154.13 493.59,151.964 493.5,149.5C 493.59,147.036 494.257,144.87 495.5,143C 493.503,141.847 493.17,140.347 494.5,138.5C 496.002,142.374 496.669,142.041 496.5,137.5 Z"/></g>
<g><path style="opacity:0.924" fill="#000000" d="M 286.5,379.5 C 306.784,377.959 326.118,381.459 344.5,390C 369.816,403.673 393.149,420.007 414.5,439C 417.705,441.102 421.038,442.935 424.5,444.5C 431.721,440.734 435.387,434.734 435.5,426.5C 434.474,419.398 432.974,412.398 431,405.5C 428.85,397.661 431.683,394.827 439.5,397C 449.941,407.043 455.607,419.209 456.5,433.5C 456.479,438.223 455.979,442.889 455,447.5C 443.022,472.622 431.189,497.788 419.5,523C 416.833,523.667 414.167,523.667 411.5,523C 410.903,521.938 410.57,520.772 410.5,519.5C 413.375,504.458 416.375,489.458 419.5,474.5C 401.481,475.643 383.481,475.476 365.5,474C 340.379,471.872 321.546,460.038 309,438.5C 303.946,431.058 299.946,423.058 297,414.5C 295.506,409.474 296.673,405.308 300.5,402C 295.586,400.839 290.586,400.006 285.5,399.5C 275.356,400.211 265.356,401.711 255.5,404C 252.167,404.667 248.833,404.667 245.5,404C 244.217,401.205 244.217,398.372 245.5,395.5C 257.68,386.22 271.347,380.887 286.5,379.5 Z M 342.5,419.5 C 343.14,422.865 343.974,426.198 345,429.5C 354.581,445.355 368.081,450.522 385.5,445C 371.019,436.672 356.686,428.172 342.5,419.5 Z"/></g>
<g><path style="opacity:0.924" fill="#000000" d="M 697.5,379.5 C 713.289,378.557 728.622,380.723 743.5,386C 748.838,388.667 753.838,391.834 758.5,395.5C 759.783,398.372 759.783,401.205 758.5,404C 755.167,404.667 751.833,404.667 748.5,404C 738.644,401.711 728.644,400.211 718.5,399.5C 713.414,400.006 708.414,400.839 703.5,402C 707.327,405.308 708.494,409.474 707,414.5C 700.733,430.876 691.566,445.376 679.5,458C 667.487,467.451 653.82,472.784 638.5,474C 620.519,475.476 602.519,475.643 584.5,474.5C 587.625,489.458 590.625,504.458 593.5,519.5C 593.43,520.772 593.097,521.938 592.5,523C 589.833,523.667 587.167,523.667 584.5,523C 572.811,497.788 560.978,472.622 549,447.5C 547,438.167 547,428.833 549,419.5C 553.053,411.227 558.219,403.727 564.5,397C 572.317,394.827 575.15,397.661 573,405.5C 571.026,412.398 569.526,419.398 568.5,426.5C 568.613,434.734 572.279,440.734 579.5,444.5C 589.461,439.69 598.128,433.19 605.5,425C 617.167,416.667 628.833,408.333 640.5,400C 658.107,388.857 677.107,382.023 697.5,379.5 Z M 660.5,419.5 C 646.934,428.534 632.934,437.034 618.5,445C 622.811,446.271 627.144,447.437 631.5,448.5C 637.205,447.21 642.539,445.044 647.5,442C 656.155,436.617 660.489,429.117 660.5,419.5 Z"/></g>
</svg>
