<?xml version="1.0" encoding="UTF-8"?>
<!DOCTYPE svg PUBLIC "-//W3C//DTD SVG 1.1//EN" "http://www.w3.org/Graphics/SVG/1.1/DTD/svg11.dtd">
<svg xmlns="http://www.w3.org/2000/svg" version="1.1" width="1366px" height="500px" style="shape-rendering:geometricPrecision; text-rendering:geometricPrecision; image-rendering:optimizeQuality; fill-rule:evenodd; clip-rule:evenodd" xmlns:xlink="http://www.w3.org/1999/xlink">
<g><path style="opacity:0.926" fill="white" d="M 228.5,57.5 C 238.172,57.3335 247.839,57.5002 257.5,58C 289.532,67.9034 299.032,88.4034 286,119.5C 271.693,146.158 253.193,169.658 230.5,190C 263.43,200.189 280.43,222.523 281.5,257C 280.769,280.761 273.936,302.594 261,322.5C 224.656,372.268 175.823,401.434 114.5,410C 102.838,410.5 91.1714,410.667 79.5,410.5C 79.6641,413.187 79.4974,415.854 79,418.5C 73.2494,428.253 65.0827,435.086 54.5,439C 50.8823,439.966 47.549,439.466 44.5,437.5C 42.7398,427.421 43.7398,417.587 47.5,408C 42.2952,404.255 36.6285,401.255 30.5,399C 8.46526,385.908 3.2986,368.075 15,345.5C 19.9739,335.858 27.4739,329.025 37.5,325C 48.7591,321.991 52.5924,325.824 49,336.5C 45.3191,340.52 43.9858,345.187 45,350.5C 47.7564,358.026 52.423,364.026 59,368.5C 73.3369,330.976 89.5035,294.309 107.5,258.5C 88.3661,256.572 82.1994,246.572 89,228.5C 93.4635,221.404 98.9635,215.238 105.5,210C 116.296,203.185 127.463,197.018 139,191.5C 146.957,175.913 152.957,159.58 157,142.5C 157.26,136.449 157.927,130.449 159,124.5C 166.565,115.298 176.065,108.965 187.5,105.5C 191.2,106.056 192.867,108.222 192.5,112C 192.015,122.318 190.515,132.484 188,142.5C 184.888,152.057 181.221,161.39 177,170.5C 174.612,175.443 172.112,180.276 169.5,185C 177.419,184.482 185.419,183.982 193.5,183.5C 198.521,183.891 203.521,184.057 208.5,184C 227.78,168.396 242.947,149.563 254,127.5C 260.493,108.285 254.326,95.1188 235.5,88C 218.874,83.629 202.208,83.629 185.5,88C 159.361,94.0387 135.361,104.705 113.5,120C 103.901,127.586 97.5674,137.252 94.5,149C 94.2814,150.971 95.1147,152.138 97,152.5C 101.355,150.683 105.855,150.183 110.5,151C 111.591,153.064 111.758,155.231 111,157.5C 103.658,167.251 94.4913,174.751 83.5,180C 71.5714,184.778 63.4047,181.278 59,169.5C 58.3333,165.5 58.3333,161.5 59,157.5C 62.7815,148.723 67.7815,140.723 74,133.5C 106.934,98.6114 146.768,75.4447 193.5,64C 205.33,61.8642 216.996,59.6975 228.5,57.5 Z M 155.5,214.5 C 160.511,214.334 165.511,214.501 170.5,215C 164.91,217.38 159.41,219.88 154,222.5C 153.5,222.333 153,222.167 152.5,222C 153.991,219.692 154.991,217.192 155.5,214.5 Z M 197.5,217.5 C 228.92,225.421 244.92,245.588 245.5,278C 245.003,300.813 237.17,320.646 222,337.5C 196.94,360.988 167.107,374.488 132.5,378C 117.041,380.325 101.708,379.825 86.5,376.5C 89.7899,366.817 93.2899,356.817 97,346.5C 111.184,314.962 125.184,283.296 139,251.5C 150.848,245.826 162.682,239.993 174.5,234C 182.627,229.025 190.293,223.525 197.5,217.5 Z M 122.5,221.5 C 125.774,221.628 125.941,222.961 123,225.5C 121.232,224.318 121.065,222.985 122.5,221.5 Z"/></g>
<g><path style="opacity:0.909" fill="white" d="M 794.5,57.5 C 796.288,57.2148 797.955,57.5481 799.5,58.5C 808.014,68.5107 817.681,77.3441 828.5,85C 846.322,92.7502 864.322,93.4169 882.5,87C 911.588,79.947 940.255,81.2803 968.5,91C 983.697,92.8941 998.363,90.8941 1012.5,85C 1031.3,76.7685 1049.63,67.7685 1067.5,58C 1092.61,51.4396 1101.11,60.2729 1093,84.5C 1073.59,133.239 1057.09,182.906 1043.5,233.5C 1054.12,233.765 1064.79,233.765 1075.5,233.5C 1076.46,238.74 1074.79,242.907 1070.5,246C 1061.92,251.418 1052.59,255.084 1042.5,257C 1046.63,260.131 1050.47,263.631 1054,267.5C 1055.2,269.677 1055.7,272.011 1055.5,274.5C 1050.78,276.127 1045.95,277.461 1041,278.5C 1039.49,278.23 1037.99,277.897 1036.5,277.5C 1035.35,277.818 1034.52,278.484 1034,279.5C 1033.49,284.238 1032.65,288.905 1031.5,293.5C 1037.77,299.439 1042.44,306.439 1045.5,314.5C 1045.78,316.623 1044.95,317.956 1043,318.5C 1037.91,316.957 1033.25,314.624 1029,311.5C 1027.99,321.952 1028.66,332.286 1031,342.5C 1034.18,353.264 1040.18,355.264 1049,348.5C 1071.42,313.985 1088.75,276.985 1101,237.5C 1110.12,228.794 1120.96,224.627 1133.5,225C 1134.57,225.739 1135.24,226.739 1135.5,228C 1134.07,231.461 1132.74,234.961 1131.5,238.5C 1136.85,237.988 1142.19,236.488 1147.5,234C 1157.76,228.734 1167.76,223.067 1177.5,217C 1180.17,216.333 1182.83,216.333 1185.5,217C 1186.55,218.388 1186.72,219.888 1186,221.5C 1169.81,245.216 1156.81,270.55 1147,297.5C 1143.13,309.134 1142.8,320.801 1146,332.5C 1147.67,333.833 1149.33,335.167 1151,336.5C 1167.38,322.729 1179.05,305.729 1186,285.5C 1187.16,285.002 1187.99,284.169 1188.5,283C 1198.3,250.076 1211.63,218.743 1228.5,189C 1223.76,188.878 1219.1,189.545 1214.5,191C 1204.4,195.089 1194.07,198.256 1183.5,200.5C 1182.26,199.754 1180.93,199.421 1179.5,199.5C 1179.44,193.453 1182.11,188.953 1187.5,186C 1191.33,184.254 1194.99,182.254 1198.5,180C 1212.63,174.458 1226.96,169.624 1241.5,165.5C 1253.71,144.127 1269.04,125.294 1287.5,109C 1292.71,105.127 1298.37,102.127 1304.5,100C 1308.89,99.2278 1313.22,99.3945 1317.5,100.5C 1319.03,102.707 1319.7,105.207 1319.5,108C 1316.23,125.822 1310.56,142.822 1302.5,159C 1318.46,161.239 1334.46,163.239 1350.5,165C 1357.45,165.284 1359.95,168.784 1358,175.5C 1349.98,183.678 1340.32,188.012 1329,188.5C 1317.39,187.409 1305.89,185.743 1294.5,183.5C 1293.17,183.833 1291.83,184.167 1290.5,184.5C 1268.32,223.838 1242.82,260.838 1214,295.5C 1213.14,305.269 1213.81,314.936 1216,324.5C 1218.07,331.899 1222.73,336.566 1230,338.5C 1231.97,338.458 1233.8,337.958 1235.5,337C 1248.23,326.622 1257.39,313.788 1263,298.5C 1267.85,290.164 1275.02,285.497 1284.5,284.5C 1288.19,283.73 1290.53,285.063 1291.5,288.5C 1279.82,321.354 1258.15,345.187 1226.5,360C 1199.46,367.884 1184.63,357.717 1182,329.5C 1171.3,340.425 1159.14,349.258 1145.5,356C 1138.33,358.345 1131,359.011 1123.5,358C 1116.88,354.613 1113.38,349.113 1113,341.5C 1112.22,333.452 1112.56,325.452 1114,317.5C 1117.49,304.36 1122.16,291.694 1128,279.5C 1133.59,270.305 1138.59,260.972 1143,251.5C 1136.62,253.347 1130.46,255.68 1124.5,258.5C 1119.76,269.243 1114.92,279.91 1110,290.5C 1098.62,308.587 1088.29,327.253 1079,346.5C 1071.57,358.263 1062.4,368.429 1051.5,377C 1040.29,383.523 1028.29,386.523 1015.5,386C 1007.16,383.659 1001.33,378.493 998,370.5C 992.911,354.879 991.244,338.879 993,322.5C 996.408,302.048 1000.24,281.715 1004.5,261.5C 974.249,263.953 944.249,268.12 914.5,274C 895.941,304.953 877.774,336.12 860,367.5C 848.964,384.708 836.131,400.541 821.5,415C 808.826,427 794.16,435.667 777.5,441C 744.363,446.842 719.53,435.342 703,406.5C 692.841,371.269 701.341,341.436 728.5,317C 749.398,299.381 773.065,286.714 799.5,279C 794.744,277.978 790.077,276.644 785.5,275C 783.82,274.653 782.82,273.653 782.5,272C 784.261,268.569 786.428,265.403 789,262.5C 792.215,260.329 795.048,257.829 797.5,255C 795.86,246.923 795.193,238.757 795.5,230.5C 785.998,231.4 776.498,232.4 767,233.5C 761.857,233.875 760.191,231.541 762,226.5C 764.586,211.967 769.086,198.134 775.5,185C 761.235,184.428 747.068,182.928 733,180.5C 731.167,180.833 729.333,181.167 727.5,181.5C 705.961,221.25 680.461,258.25 651,292.5C 650.21,305.426 652.543,317.759 658,329.5C 661.198,332.682 665.031,334.682 669.5,335.5C 684.285,324.55 695.118,310.55 702,293.5C 705.23,288.637 709.396,284.804 714.5,282C 718.741,280.543 723.074,280.209 727.5,281C 729.036,282.599 729.536,284.433 729,286.5C 717.732,316.103 698.232,338.603 670.5,354C 660.546,358.165 650.213,359.498 639.5,358C 632.091,355.592 626.924,350.758 624,343.5C 620.868,335.107 619.201,326.44 619,317.5C 612.829,321.948 605.995,324.948 598.5,326.5C 585.765,351.395 565.432,362.895 537.5,361C 526.874,356.372 519.707,348.539 516,337.5C 513.856,329.956 513.189,322.289 514,314.5C 523.213,301.137 535.713,295.971 551.5,299C 557.638,303.652 564.471,306.819 572,308.5C 572.372,300.764 571.706,293.097 570,285.5C 566.57,275.014 563.903,264.348 562,253.5C 557.167,257.667 552.333,261.833 547.5,266C 535.462,277.877 526.295,290.71 520,304.5C 519.667,304.167 519.333,303.833 519,303.5C 517.667,304.833 516.333,306.167 515,307.5C 502.794,326.038 487.627,341.538 469.5,354C 446.229,363.785 432.729,356.285 429,331.5C 421.433,339.737 413.267,347.237 404.5,354C 400.251,356.194 395.918,358.194 391.5,360C 379.74,361.866 372.24,357.033 369,345.5C 367.781,338.579 367.114,331.579 367,324.5C 357.096,335.735 345.93,345.568 333.5,354C 309.904,368.802 293.404,363.302 284,337.5C 277.469,291.082 292.636,253.582 329.5,225C 338.656,220.239 348.322,218.239 358.5,219C 369.559,226.343 373.059,236.51 369,249.5C 362.509,267.157 352.509,282.49 339,295.5C 331.296,302.873 323.296,309.873 315,316.5C 315.672,324.171 318.505,331.004 323.5,337C 325.76,338.689 328.26,339.856 331,340.5C 337.708,335.459 343.375,329.459 348,322.5C 354.752,313.337 360.752,303.67 366,293.5C 371.563,288.302 377.73,283.969 384.5,280.5C 393.067,264.107 404.067,249.607 417.5,237C 431.489,226.5 447.155,222.167 464.5,224C 468.289,225.488 472.122,226.988 476,228.5C 481.578,224.959 487.411,221.793 493.5,219C 500.718,217.293 502.885,219.793 500,226.5C 483.49,246.39 471.156,268.723 463,293.5C 460.866,302.478 460.533,311.478 462,320.5C 463.182,326.549 466.515,330.882 472,333.5C 473.944,332.561 475.611,331.227 477,329.5C 486.829,316.457 494.995,302.79 501.5,288.5C 503.193,287.772 504.693,286.772 506,285.5C 524.583,256.91 547.417,232.077 574.5,211C 578.833,208.667 583.167,206.333 587.5,204C 590.482,203.502 593.482,203.335 596.5,203.5C 593.878,227.86 595.711,251.86 602,275.5C 602.966,285.813 603.632,296.146 604,306.5C 610.838,303.329 616.838,298.995 622,293.5C 632.715,255.698 647.549,219.531 666.5,185C 651.445,188.517 636.445,192.35 621.5,196.5C 615.751,195.154 614.918,192.154 619,187.5C 626,181.582 633.834,177.082 642.5,174C 654.451,170.127 666.451,166.461 678.5,163C 691.518,139.98 708.185,119.98 728.5,103C 735.977,97.4177 744.311,95.0843 753.5,96C 756.685,97.7037 758.019,100.37 757.5,104C 757.045,108.9 756.211,113.733 755,118.5C 750.071,131.119 745.238,143.785 740.5,156.5C 754.593,157.464 768.593,158.63 782.5,160C 776.028,153.534 771.195,146.034 768,137.5C 765.296,126.945 763.13,116.278 761.5,105.5C 762.086,90.5267 767.753,78.0267 778.5,68C 783.727,64.2276 789.061,60.7276 794.5,57.5 Z M 794.5,78.5 C 803.586,89.3878 814.586,97.8878 827.5,104C 833.074,105.715 838.74,107.048 844.5,108C 838.712,114.753 834.379,122.253 831.5,130.5C 833.199,130.66 834.866,130.494 836.5,130C 868.369,103.6 904.702,93.9334 945.5,101C 962.367,105.841 978.034,113.174 992.5,123C 984.833,132.667 977.167,142.333 969.5,152C 954.306,155.149 938.973,157.316 923.5,158.5C 923.144,153.048 925.477,149.215 930.5,147C 936.4,145.239 942.4,143.905 948.5,143C 955.681,140.833 961.515,136.666 966,130.5C 966.72,128.888 966.554,127.388 965.5,126C 956.008,126.545 946.508,127.378 937,128.5C 931.137,128.075 925.303,127.409 919.5,126.5C 913.515,127.297 907.515,127.964 901.5,128.5C 891.836,127.389 882.17,126.389 872.5,125.5C 872.748,130.16 874.748,133.993 878.5,137C 886.583,142.493 895.583,145.493 905.5,146C 911.994,147.659 915.327,151.825 915.5,158.5C 900.02,157.317 884.687,155.151 869.5,152C 864.305,150.142 860.305,146.808 857.5,142C 856.216,141.316 855.049,141.483 854,142.5C 853.022,150.048 855.522,156.214 861.5,161C 866.272,163.59 871.272,165.59 876.5,167C 891.972,169.403 905.306,176.07 916.5,187C 918.167,187.667 919.833,187.667 921.5,187C 931.453,176.69 943.453,170.69 957.5,169C 936.887,196.382 917.887,224.882 900.5,254.5C 885.011,258.803 869.344,261.47 853.5,262.5C 854.946,256.942 857.446,251.942 861,247.5C 861.494,245.866 861.66,244.199 861.5,242.5C 844.685,243.717 829.518,249.383 816,259.5C 814.304,247.128 812.471,234.794 810.5,222.5C 810.966,219.508 811.299,216.508 811.5,213.5C 802.421,210.71 793.421,211.043 784.5,214.5C 783.833,214.167 783.167,213.833 782.5,213.5C 790.437,186.619 804.27,163.286 824,143.5C 824.494,141.866 824.66,140.199 824.5,138.5C 813.37,137.445 802.703,139.112 792.5,143.5C 789.238,139.314 786.738,134.647 785,129.5C 782.793,121.632 781.293,113.632 780.5,105.5C 780.727,94.0417 785.394,85.0417 794.5,78.5 Z M 953.5,211.5 C 982.36,165.441 1016.03,122.941 1054.5,84C 1058.2,82.6073 1060.2,83.774 1060.5,87.5C 1056.41,101.957 1051.24,115.957 1045,129.5C 1032.9,165.245 1021.73,201.245 1011.5,237.5C 995.231,239.919 978.897,242.086 962.5,244C 959.204,244.457 956.037,245.291 953,246.5C 952.596,240.479 951.429,234.646 949.5,229C 973.29,234.285 988.623,225.452 995.5,202.5C 996.293,202.069 997.127,201.735 998,201.5C 1003.13,202.422 1008.3,203.089 1013.5,203.5C 1013.79,201.712 1013.45,200.045 1012.5,198.5C 998.802,190.498 985.135,190.665 971.5,199C 965.326,203.022 959.326,207.189 953.5,211.5 Z M 1007.5,104.5 C 1008.24,104.369 1008.91,104.536 1009.5,105C 1006,108.5 1002.5,112 999,115.5C 997.374,113.083 995.874,110.583 994.5,108C 999.042,107.133 1003.37,105.967 1007.5,104.5 Z M 723.5,131.5 C 721.33,140.165 718.33,148.499 714.5,156.5C 711.553,157.658 708.553,158.158 705.5,158C 710.904,148.668 716.904,139.835 723.5,131.5 Z M 1285.5,135.5 C 1283.05,143.522 1280.38,151.522 1277.5,159.5C 1274.55,160.653 1271.55,161.653 1268.5,162.5C 1267.48,161.998 1267.31,161.332 1268,160.5C 1273.7,151.987 1279.53,143.654 1285.5,135.5 Z M 666.5,241.5 C 668.775,232.173 671.942,223.173 676,214.5C 681.299,203.853 686.632,193.186 692,182.5C 695.992,180.73 700.159,180.23 704.5,181C 697.903,192.352 691.403,203.852 685,215.5C 679.057,224.409 672.89,233.076 666.5,241.5 Z M 1227.5,247.5 C 1234.85,226.134 1243.85,205.467 1254.5,185.5C 1258.4,184.016 1262.4,183.516 1266.5,184C 1255.38,206.419 1242.38,227.585 1227.5,247.5 Z M 862.5,209.5 C 866.479,212.493 870.812,214.993 875.5,217C 870.883,218.297 867.05,217.13 864,213.5C 863.209,212.255 862.709,210.922 862.5,209.5 Z M 975.5,210.5 C 973.39,216.056 969.39,218.223 963.5,217C 967.394,214.554 971.394,212.388 975.5,210.5 Z M 940.5,230.5 C 943.623,235.322 946.29,240.489 948.5,246C 941.882,247.659 935.215,248.659 928.5,249C 932.871,243.097 936.871,236.93 940.5,230.5 Z M 333.5,242.5 C 336.452,243.359 338.285,245.359 339,248.5C 336.612,268.911 327.945,286.244 313,300.5C 313.718,278.937 320.551,259.604 333.5,242.5 Z M 428.5,248.5 C 438.205,247.238 447.205,249.071 455.5,254C 446.853,269.611 438.02,285.111 429,300.5C 421.734,312.031 413.734,323.031 405,333.5C 398.407,325.188 396.74,315.855 400,305.5C 406.329,284.841 415.829,265.841 428.5,248.5 Z M 821.5,263.5 C 824.314,262.835 827.314,262.502 830.5,262.5C 834.285,262.411 837.952,262.911 841.5,264C 834.869,263.726 828.203,263.559 821.5,263.5 Z M 884.5,279.5 C 865.329,311.843 846.163,344.176 827,376.5C 819.66,387.849 810.827,398.015 800.5,407C 783.117,418.318 765.783,418.318 748.5,407C 732.325,390.352 729.159,371.518 739,350.5C 748.365,337.904 759.865,327.737 773.5,320C 808.683,301.266 845.683,287.766 884.5,279.5 Z M 544.5,326.5 C 546.189,327.931 548.189,328.764 550.5,329C 557.167,329.333 563.833,329.667 570.5,330C 569.071,332.69 568.071,335.523 567.5,338.5C 559.019,339.259 551.852,336.592 546,330.5C 545.209,329.255 544.709,327.922 544.5,326.5 Z"/></g>
<g><path style="opacity:0.801" fill="white" d="M 838.5,192.5 C 853.072,192.452 866.072,196.952 877.5,206C 881.725,209.896 886.225,213.396 891,216.5C 893.069,215.368 894.235,213.535 894.5,211C 893.341,207.549 892.841,204.049 893,200.5C 895.276,197.936 897.276,198.27 899,201.5C 903.135,206.474 904.468,212.14 903,218.5C 898.964,227.186 894.964,235.853 891,244.5C 889.556,246.155 887.722,246.822 885.5,246.5C 886.114,240.763 887.114,235.096 888.5,229.5C 883.289,229.49 877.956,229.323 872.5,229C 867.654,228.811 862.988,227.811 858.5,226C 852.202,221.029 847.369,214.863 844,207.5C 843.28,205.888 843.446,204.388 844.5,203C 843.391,202.362 842.225,201.862 841,201.5C 836.685,202.239 832.351,202.906 828,203.5C 824.83,203.484 823.997,202.151 825.5,199.5C 826.5,198.667 827.5,197.833 828.5,197C 832.061,195.768 835.394,194.268 838.5,192.5 Z M 862.5,209.5 C 862.709,210.922 863.209,212.255 864,213.5C 867.05,217.13 870.883,218.297 875.5,217C 870.812,214.993 866.479,212.493 862.5,209.5 Z"/></g>
<g><path style="opacity:0.012" fill="white" d="M 620.5,285.5 C 622.337,285.639 622.67,286.306 621.5,287.5C 620.702,287.043 620.369,286.376 620.5,285.5 Z"/></g>
</svg>
